<svg width="21" height="19" viewBox="0 0 21 19" fill="none" xmlns="http://www.w3.org/2000/svg">
<mask id="mask0_187_235" style="mask-type:alpha" maskUnits="userSpaceOnUse" x="-3" y="-5" width="26" height="26">
<rect x="-2.03884" y="-4.07767" width="24.466" height="24.466" fill="#D9D9D9"/>
</mask>
<g mask="url(#mask0_187_235)">
<path d="M18.3495 2.03884H2.03884V14.2719H11.2136V16.3107H2.03884C1.47816 16.3107 0.998181 16.1111 0.598909 15.7118C0.199636 15.3125 0 14.8325 0 14.2719V2.03884C0 1.47816 0.199636 0.998181 0.598909 0.598909C0.998181 0.199636 1.47816 0 2.03884 0H18.3495C18.9102 0 19.3902 0.199636 19.7895 0.598909C20.1887 0.998181 20.3884 1.47816 20.3884 2.03884V9.17477H18.3495V2.03884ZM17.5085 16.3107H14.2719C13.983 16.3107 13.7409 16.213 13.5455 16.0176C13.3501 15.8222 13.2524 15.5801 13.2524 15.2913C13.2524 15.0024 13.3501 14.7603 13.5455 14.5649C13.7409 14.3696 13.983 14.2719 14.2719 14.2719H17.5085L16.591 13.3544C16.3872 13.1505 16.2895 12.9126 16.298 12.6408C16.3065 12.3689 16.4126 12.1311 16.6165 11.9272C16.8204 11.7403 17.0583 11.6426 17.3301 11.6341C17.602 11.6256 17.8398 11.7233 18.0437 11.9272L20.6942 14.5777C20.8981 14.7816 21 15.0194 21 15.2913C21 15.5631 20.8981 15.801 20.6942 16.0049L18.0437 18.6554C17.8568 18.8423 17.6232 18.9399 17.3429 18.9484C17.0625 18.9569 16.8204 18.8592 16.6165 18.6554C16.4296 18.4685 16.3362 18.2306 16.3362 17.9418C16.3362 17.6529 16.4296 17.4151 16.6165 17.2282L17.5085 16.3107ZM2.03884 2.03884V14.2719V9.17477V9.25122V2.03884ZM10.1942 7.13593L18.3495 2.03884V4.07767L10.7294 8.84346C10.5595 8.9454 10.3811 8.99637 10.1942 8.99637C10.0073 8.99637 9.8289 8.9454 9.65899 8.84346L2.03884 4.07767V2.03884L10.1942 7.13593Z" fill="#B3B3B3"/>
</g>
</svg>
