<svg width="21" height="19" viewBox="0 0 21 19" fill="none" xmlns="http://www.w3.org/2000/svg">
<mask id="mask0_219_341" style="mask-type:alpha" maskUnits="userSpaceOnUse" x="-3" y="-5" width="26" height="26">
<rect x="-2.03883" y="-4.07765" width="24.4659" height="24.4659" fill="#D9D9D9"/>
</mask>
<g mask="url(#mask0_219_341)">
<path d="M18.3494 2.03883H2.03883V14.2718H11.2135V16.3106H2.03883C1.47815 16.3106 0.998175 16.111 0.598905 15.7117C0.199635 15.3124 0 14.8325 0 14.2718V2.03883C0 1.47815 0.199635 0.998175 0.598905 0.598905C0.998175 0.199635 1.47815 0 2.03883 0H18.3494C18.9101 0 19.3901 0.199635 19.7893 0.598905C20.1886 0.998175 20.3883 1.47815 20.3883 2.03883V9.17471H18.3494V2.03883ZM17.5084 16.3106H14.2718C13.9829 16.3106 13.7408 16.2129 13.5454 16.0175C13.3501 15.8221 13.2524 15.58 13.2524 15.2912C13.2524 15.0024 13.3501 14.7602 13.5454 14.5649C13.7408 14.3695 13.9829 14.2718 14.2718 14.2718H17.5084L16.5909 13.3543C16.3871 13.1504 16.2894 12.9126 16.2979 12.6407C16.3064 12.3689 16.4125 12.131 16.6164 11.9271C16.8203 11.7402 17.0582 11.6425 17.33 11.634C17.6019 11.6256 17.8397 11.7232 18.0436 11.9271L20.6941 14.5776C20.898 14.7815 20.9999 15.0193 20.9999 15.2912C20.9999 15.563 20.898 15.8009 20.6941 16.0048L18.0436 18.6553C17.8567 18.8421 17.6231 18.9398 17.3428 18.9483C17.0624 18.9568 16.8203 18.8591 16.6164 18.6553C16.4295 18.4684 16.3361 18.2305 16.3361 17.9417C16.3361 17.6528 16.4295 17.415 16.6164 17.2281L17.5084 16.3106ZM2.03883 2.03883V14.2718V9.17471V9.25117V2.03883ZM10.1941 7.13589L18.3494 2.03883V4.07765L10.7293 8.8434C10.5594 8.94535 10.381 8.99632 10.1941 8.99632C10.0072 8.99632 9.82884 8.94535 9.65894 8.8434L2.03883 4.07765V2.03883L10.1941 7.13589Z" fill="#FF3D00"/>
</g>
</svg>
