<svg width="20" height="20" viewBox="0 0 20 20" fill="none" xmlns="http://www.w3.org/2000/svg">
<path d="M6.77967 2.82586C6.90456 2.57756 7.09598 2.36884 7.33258 2.22299C7.56919 2.07715 7.84166 1.99991 8.1196 1.9999H11.8834C12.1621 1.99991 12.4353 2.07757 12.6723 2.22417C12.9094 2.37077 13.1009 2.58051 13.2254 2.82986L13.8103 3.9998H15.5002C16.1633 3.9998 16.7991 4.26318 17.2679 4.732C17.7367 5.20082 18.0001 5.83667 18.0001 6.49968V8.69458C17.7081 8.4422 17.3679 8.2517 17.0002 8.1346V6.49968C17.0002 6.10188 16.8421 5.72036 16.5609 5.43907C16.2796 5.15778 15.898 4.99976 15.5002 4.99976H13.5003C13.4077 4.99957 13.317 4.97366 13.2383 4.92493C13.1595 4.8762 13.0958 4.80656 13.0544 4.72377L12.3314 3.27684C12.2899 3.19356 12.226 3.12351 12.1468 3.07458C12.0677 3.02564 11.9765 2.99976 11.8834 2.99985H8.1196C8.02693 2.99976 7.93606 3.02543 7.85714 3.07399C7.77821 3.12255 7.71433 3.19208 7.67263 3.27484L6.94466 4.72377C6.90304 4.80637 6.83931 4.87581 6.76058 4.92436C6.68184 4.97291 6.59118 4.99866 6.49868 4.99876H4.50078C4.10298 4.99876 3.72146 5.15678 3.44017 5.43807C3.15888 5.71937 3.00085 6.10088 3.00085 6.49868V14.4993C3.00085 14.8971 3.15888 15.2786 3.44017 15.5599C3.72146 15.8412 4.10298 15.9992 4.50078 15.9992H8.2166L8.05361 16.6522C8.02513 16.766 8.00706 16.8821 7.99961 16.9992H4.49978C3.83677 16.9992 3.20092 16.7358 2.7321 16.267C2.26328 15.7982 1.9999 15.1623 1.9999 14.4993V6.49968C1.9999 5.83667 2.26328 5.20082 2.7321 4.732C3.20092 4.26318 3.83677 3.9998 4.49978 3.9998H6.1897L6.77967 2.82586ZM13.8833 9.05556C13.649 8.10794 13.0765 7.27863 12.2734 6.72371C11.4703 6.16879 10.4921 5.92654 9.52289 6.04254C8.55366 6.15855 7.66026 6.62482 7.01082 7.35359C6.36139 8.08236 6.00073 9.02337 5.99671 9.99951C5.99671 11.8894 7.30664 13.4723 9.06856 13.8913C9.13238 13.8142 9.19978 13.7401 9.27055 13.6693L9.94051 12.9994C9.35212 12.9883 8.77998 12.8044 8.29533 12.4705C7.81068 12.1367 7.43492 11.6677 7.21485 11.1219C6.99477 10.5761 6.94009 9.97759 7.05762 9.40095C7.17515 8.8243 7.45969 8.29496 7.87583 7.87883C8.29196 7.46269 8.8213 7.17815 9.39795 7.06062C9.97459 6.94309 10.5731 6.99777 11.1189 7.21785C11.6647 7.43792 12.1337 7.81368 12.4675 8.29833C12.8014 8.78298 12.9853 9.35512 12.9964 9.94351L13.8833 9.05556ZM14.8053 9.54753L9.97551 14.3773C9.69439 14.6588 9.49497 15.0113 9.39854 15.3972L9.02356 16.8952C8.98658 17.0442 8.98876 17.2002 9.02989 17.3481C9.07103 17.4959 9.14971 17.6307 9.2583 17.7392C9.36689 17.8477 9.5017 17.9262 9.64962 17.9672C9.79755 18.0082 9.95356 18.0102 10.1025 17.9731L11.6004 17.5991C11.9865 17.5026 12.3391 17.3028 12.6204 17.0212L17.4501 12.1914C17.7963 11.8397 17.9894 11.3655 17.9874 10.8721C17.9854 10.3787 17.7884 9.90607 17.4394 9.55724C17.0905 9.2084 16.6178 9.01163 16.1244 9.00982C15.6309 9.008 15.1568 9.20128 14.8053 9.54753Z" fill="#FF3D00"/>
</svg>
